<svg viewBox="0 0 5000 200" width="5000" height="200"
    xmlns="http://www.w3.org/2000/svg"
    xmlns:xlink="http://www.w3.org/1999/xlink" version="1.1">

    <linearGradient id="gradient-footer" y1="0%" x2="0%" y2="100%" gradientTransform="rotate(0 .5 .5)">
        <stop offset="50%" stop-color="red"></stop>
        <stop offset="100%" stop-color="#ffcc5f"></stop>
    </linearGradient>
    <rect x="0" y="0" width="5000" height="200" fill="transparent"></rect>
    <path fill="url(#gradient-footer)" stroke-linecap="round" stroke-linejoin="miter" d="M0 140L26.8 133.2C53.7 126.3 107.3 112.7 161.2 106.2C215 99.7 269 100.3 322.8 106.3C376.7 112.3 430.3 123.7 484 119.3C537.7 115 591.3 95 645 86.3C698.7 77.7 752.3 80.3 806.2 90.3C860 100.3 914 117.7 967.8 126.8C1021.7 136 1075.3 137 1129 133C1182.7 129 1236.3 120 1290.2 113.5C1344 107 1398 103 1451.8 92.7C1505.7 82.3 1559.3 65.7 1613 68.5C1666.7 71.3 1720.3 93.7 1774 92.5C1827.7 91.3 1881.3 66.7 1935.2 68.5C1989 70.3 2043 98.7 2096.8 116.7C2150.7 134.7 2204.3 142.3 2258 144.5C2311.7 146.7 2365.3 143.3 2419.2 140.5C2473 137.7 2527 135.3 2580.8 137C2634.7 138.7 2688.3 144.3 2742 130.3C2795.7 116.3 2849.3 82.7 2903.2 68.5C2957 54.3 3011 59.7 3064.8 66.8C3118.7 74 3172.3 83 3226 97.7C3279.7 112.3 3333.3 132.7 3387 133.2C3440.7 133.7 3494.3 114.3 3548.2 96.5C3602 78.7 3656 62.3 3709.8 65.3C3763.7 68.3 3817.3 90.7 3871 99.7C3924.7 108.7 3978.3 104.3 4032.2 110.2C4086 116 4140 132 4193.8 131C4247.7 130 4301.3 112 4355 109.7C4408.7 107.3 4462.3 120.7 4516 127.7C4569.7 134.7 4623.3 135.3 4677.2 129C4731 122.7 4785 109.3 4838.8 96.8C4892.7 84.3 4946.3 72.7 4973.2 66.8L5000 61L5000 201L4973.2 201C4946.3 201 4892.7 201 4838.8 201C4785 201 4731 201 4677.2 201C4623.3 201 4569.7 201 4516 201C4462.3 201 4408.7 201 4355 201C4301.3 201 4247.7 201 4193.8 201C4140 201 4086 201 4032.2 201C3978.3 201 3924.7 201 3871 201C3817.3 201 3763.7 201 3709.8 201C3656 201 3602 201 3548.2 201C3494.3 201 3440.7 201 3387 201C3333.3 201 3279.7 201 3226 201C3172.3 201 3118.7 201 3064.8 201C3011 201 2957 201 2903.2 201C2849.3 201 2795.7 201 2742 201C2688.3 201 2634.7 201 2580.8 201C2527 201 2473 201 2419.2 201C2365.3 201 2311.7 201 2258 201C2204.3 201 2150.7 201 2096.8 201C2043 201 1989 201 1935.2 201C1881.3 201 1827.7 201 1774 201C1720.3 201 1666.7 201 1613 201C1559.3 201 1505.7 201 1451.8 201C1398 201 1344 201 1290.2 201C1236.3 201 1182.7 201 1129 201C1075.3 201 1021.7 201 967.8 201C914 201 860 201 806.2 201C752.3 201 698.7 201 645 201C591.3 201 537.7 201 484 201C430.3 201 376.7 201 322.8 201C269 201 215 201 161.2 201C107.3 201 53.7 201 26.8 201L0 201Z"></path>
</svg>