<svg id="visual" viewBox="0 0 3000 200" width="3000" height="200" xmlns="http://www.w3.org/2000/svg" xmlns:xlink="http://www.w3.org/1999/xlink" version="1.1"><path d="M0 153L20.8 154.8C41.7 156.7 83.3 160.3 125 158.5C166.7 156.7 208.3 149.3 250 151.3C291.7 153.3 333.3 164.7 375 168.8C416.7 173 458.3 170 500 167.2C541.7 164.3 583.3 161.7 625 159.7C666.7 157.7 708.3 156.3 750 153.8C791.7 151.3 833.3 147.7 875 149C916.7 150.3 958.3 156.7 1000 158C1041.7 159.3 1083.3 155.7 1125 156.8C1166.7 158 1208.3 164 1250 164.3C1291.7 164.7 1333.3 159.3 1375 159.2C1416.7 159 1458.3 164 1500 162C1541.7 160 1583.3 151 1625 147.5C1666.7 144 1708.3 146 1750 149.2C1791.7 152.3 1833.3 156.7 1875 157.5C1916.7 158.3 1958.3 155.7 2000 156.8C2041.7 158 2083.3 163 2125 163.8C2166.7 164.7 2208.3 161.3 2250 162C2291.7 162.7 2333.3 167.3 2375 167.8C2416.7 168.3 2458.3 164.7 2500 164.8C2541.7 165 2583.3 169 2625 167.7C2666.7 166.3 2708.3 159.7 2750 157.3C2791.7 155 2833.3 157 2875 158.5C2916.7 160 2958.3 161 2979.2 161.5L3000 162L3000 201L2979.2 201C2958.3 201 2916.7 201 2875 201C2833.3 201 2791.7 201 2750 201C2708.3 201 2666.7 201 2625 201C2583.3 201 2541.7 201 2500 201C2458.3 201 2416.7 201 2375 201C2333.3 201 2291.7 201 2250 201C2208.3 201 2166.7 201 2125 201C2083.3 201 2041.7 201 2000 201C1958.3 201 1916.7 201 1875 201C1833.3 201 1791.7 201 1750 201C1708.3 201 1666.7 201 1625 201C1583.3 201 1541.7 201 1500 201C1458.3 201 1416.7 201 1375 201C1333.3 201 1291.7 201 1250 201C1208.3 201 1166.7 201 1125 201C1083.3 201 1041.7 201 1000 201C958.3 201 916.7 201 875 201C833.3 201 791.7 201 750 201C708.3 201 666.7 201 625 201C583.3 201 541.7 201 500 201C458.3 201 416.7 201 375 201C333.3 201 291.7 201 250 201C208.3 201 166.7 201 125 201C83.3 201 41.7 201 20.8 201L0 201Z" fill="#0066FF" stroke-linecap="round" stroke-linejoin="miter"></path></svg>