<svg id="visual" viewBox="0 0 5000 200" width="5000" height="200" xmlns="http://www.w3.org/2000/svg" xmlns:xlink="http://www.w3.org/1999/xlink" version="1.1"><path d="M0 122L37.8 118.3C75.7 114.7 151.3 107.3 227.2 106C303 104.7 379 109.3 454.8 111.8C530.7 114.3 606.3 114.7 682 116.3C757.7 118 833.3 121 909 119C984.7 117 1060.3 110 1136.2 106.8C1212 103.7 1288 104.3 1363.8 107C1439.7 109.7 1515.3 114.3 1591 112.8C1666.7 111.3 1742.3 103.7 1818 100.8C1893.7 98 1969.3 100 2045.2 102.8C2121 105.7 2197 109.3 2272.8 112.2C2348.7 115 2424.3 117 2500 116C2575.7 115 2651.3 111 2727.2 107.7C2803 104.3 2879 101.7 2954.8 104.7C3030.7 107.7 3106.3 116.3 3182 115.7C3257.7 115 3333.3 105 3409 104.8C3484.7 104.7 3560.3 114.3 3636.2 117.7C3712 121 3788 118 3863.8 113.5C3939.7 109 4015.3 103 4091 100.7C4166.7 98.3 4242.3 99.7 4318 101C4393.7 102.3 4469.3 103.7 4545.2 103.7C4621 103.7 4697 102.3 4772.8 105.3C4848.7 108.3 4924.3 115.7 4962.2 119.3L5000 123L5000 201L4962.2 201C4924.3 201 4848.7 201 4772.8 201C4697 201 4621 201 4545.2 201C4469.3 201 4393.7 201 4318 201C4242.3 201 4166.7 201 4091 201C4015.3 201 3939.7 201 3863.8 201C3788 201 3712 201 3636.2 201C3560.3 201 3484.7 201 3409 201C3333.3 201 3257.7 201 3182 201C3106.3 201 3030.7 201 2954.8 201C2879 201 2803 201 2727.2 201C2651.3 201 2575.7 201 2500 201C2424.3 201 2348.7 201 2272.8 201C2197 201 2121 201 2045.2 201C1969.3 201 1893.7 201 1818 201C1742.3 201 1666.7 201 1591 201C1515.3 201 1439.7 201 1363.8 201C1288 201 1212 201 1136.2 201C1060.3 201 984.7 201 909 201C833.3 201 757.7 201 682 201C606.3 201 530.7 201 454.8 201C379 201 303 201 227.2 201C151.3 201 75.7 201 37.8 201L0 201Z" fill="#0066FF" stroke-linecap="round" stroke-linejoin="miter"></path></svg>